<mxfile host="app.diagrams.net" agent="Mozilla/5.0 (Windows NT 10.0; Win64; x64) AppleWebKit/537.36 (KHTML, like Gecko) Chrome/131.0.0.0 Safari/537.36 Edg/131.0.0.0" version="25.0.1">
  <diagram name="Page-1" id="Page-1">
    <mxGraphModel dx="1426" dy="783" grid="1" gridSize="10" guides="1" tooltips="1" connect="1" arrows="1" fold="1" page="1" pageScale="1" pageWidth="827" pageHeight="1169" math="0" shadow="0">
      <root>
        <mxCell id="0" />
        <mxCell id="1" parent="0" />
        <UserObject label="&lt;div style=&quot;font-size: 1px&quot;&gt;&lt;font style=&quot;font-size:11.29px;font-family:Calibri;color:#feffff;direction:ltr;letter-spacing:0px;line-height:120%;opacity:1&quot;&gt;Login&lt;br/&gt;&lt;/font&gt;&lt;/div&gt;" tags="Flowchart" id="3">
          <mxCell style="verticalAlign=middle;align=center;overflow=width;vsdxID=2;fillColor=#4672c4;gradientColor=none;shape=stencil(rVFBDsIwDHtNj5VCK14wxj8ilm0VZZ3SAuX3tAoIBhwQ4mbHjhMlyjZxxJmUgZg47OnsujQqu1HGuGkkdqkgZVtlmz4wDRyOUyd8xuqs6BBONSFLH9QOAxdha6FbcSLvisR5oQEvvfegFXyMgqwxu6g5JEwuTIupHnkgXcbo3uNwyxEpnonmt/Ivi/1nLfhirQIeZ+6d9/KlZ/31LaUkL7XtFQ==);strokeColor=#c8c8c8;spacingTop=-2;spacingBottom=-2;spacingLeft=-2;spacingRight=-2;points=[[0,0.5,0],[0.5,1,0],[1,0.5,0],[0.5,0,0],[0.5,0.5,0]];labelBackgroundColor=none;rounded=0;html=1;whiteSpace=wrap;" parent="1" vertex="1">
            <mxGeometry x="350" y="330" width="76" height="76" as="geometry" />
          </mxCell>
        </UserObject>
        <mxCell id="Ib1NT77Q6sdpfj3bOKDI-33" style="edgeStyle=orthogonalEdgeStyle;rounded=0;orthogonalLoop=1;jettySize=auto;html=1;exitX=1;exitY=0.5;exitDx=0;exitDy=0;exitPerimeter=0;fillColor=#0050ef;strokeColor=#001DBC;" parent="1" source="8" target="Ib1NT77Q6sdpfj3bOKDI-22" edge="1">
          <mxGeometry relative="1" as="geometry" />
        </mxCell>
        <mxCell id="Ib1NT77Q6sdpfj3bOKDI-34" value="Cancel" style="edgeLabel;html=1;align=center;verticalAlign=middle;resizable=0;points=[];" parent="Ib1NT77Q6sdpfj3bOKDI-33" vertex="1" connectable="0">
          <mxGeometry x="0.0714" y="-2" relative="1" as="geometry">
            <mxPoint as="offset" />
          </mxGeometry>
        </mxCell>
        <UserObject label="&lt;div style=&quot;font-size: 1px&quot;&gt;&lt;font style=&quot;font-size:11.29px;font-family:Calibri;color:#feffff;direction:ltr;letter-spacing:0px;line-height:120%;opacity:1&quot;&gt;View Seats&lt;br&gt;&lt;/font&gt;&lt;/div&gt;" tags="Flowchart" id="8">
          <mxCell style="verticalAlign=middle;align=center;overflow=width;vsdxID=7;fillColor=#4672c4;gradientColor=none;shape=stencil(rVFBDsIwDHtNj5VCK14wxj8ilm0VZZ3SAuX3tAoIBhwQ4mbHjhMlyjZxxJmUgZg47OnsujQqu1HGuGkkdqkgZVtlmz4wDRyOUyd8xuqs6BBONSFLH9QOAxdha6FbcSLvisR5oQEvvfegFXyMgqwxu6g5JEwuTIupHnkgXcbo3uNwyxEpnonmt/Ivi/1nLfhirQIeZ+6d9/KlZ/31LaUkL7XtFQ==);strokeColor=#c8c8c8;spacingTop=-2;spacingBottom=-2;spacingLeft=-2;spacingRight=-2;points=[[0,0.5,0],[0.5,1,0],[1,0.5,0],[0.5,0,0],[0.5,0.5,0]];labelBackgroundColor=none;rounded=0;html=1;whiteSpace=wrap;" parent="1" vertex="1">
            <mxGeometry x="530" y="585" width="76" height="76" as="geometry" />
          </mxCell>
        </UserObject>
        <UserObject label="&lt;div style=&quot;font-size: 1px&quot;&gt;&lt;font style=&quot;font-size:11.29px;font-family:Calibri;color:#feffff;direction:ltr;letter-spacing:0px;line-height:120%;opacity:1&quot;&gt;Admin&lt;br&gt;&lt;/font&gt;&lt;/div&gt;" tags="Flowchart" id="9">
          <mxCell style="verticalAlign=middle;align=center;overflow=width;vsdxID=8;fillColor=#4672c4;gradientColor=none;shape=stencil(nZBLDoAgDERP0z3SIyjew0SURgSD+Lu9kMZoXLhwN9O+tukAlrNpJg1SzDH4QW/URgNYgZTkjA4UkwJUgGXng+6DX1zLfmoymdXo17xh5zmRJ6Q42BWCfc2oJfdAr+Yv+AP9Cb7OJ3H/2JG1HNGz/84klThPVCc=);strokeColor=#c8c8c8;spacingTop=-2;spacingBottom=-2;spacingLeft=-2;spacingRight=-2;points=[[0.5,0.5,0],[0,0.5,0],[0.5,0,0],[1,0.5,0],[0.5,1,0]];labelBackgroundColor=none;rounded=0;html=1;whiteSpace=wrap;" parent="1" vertex="1">
            <mxGeometry x="101" y="419" width="76" height="38" as="geometry" />
          </mxCell>
        </UserObject>
        <mxCell id="n0rWEYXj6u7ta5OzWeaF-73" style="edgeStyle=orthogonalEdgeStyle;rounded=0;orthogonalLoop=1;jettySize=auto;html=1;exitX=0.5;exitY=1;exitDx=0;exitDy=0;exitPerimeter=0;fillColor=#e51400;strokeColor=#B20000;" parent="1" source="11" target="n0rWEYXj6u7ta5OzWeaF-72" edge="1">
          <mxGeometry relative="1" as="geometry">
            <Array as="points">
              <mxPoint x="749" y="560" />
              <mxPoint x="258" y="560" />
            </Array>
          </mxGeometry>
        </mxCell>
        <mxCell id="n0rWEYXj6u7ta5OzWeaF-74" value="Report Admin" style="edgeLabel;html=1;align=center;verticalAlign=middle;resizable=0;points=[];" parent="n0rWEYXj6u7ta5OzWeaF-73" vertex="1" connectable="0">
          <mxGeometry x="0.0292" y="1" relative="1" as="geometry">
            <mxPoint x="142" y="-61" as="offset" />
          </mxGeometry>
        </mxCell>
        <UserObject label="" tags="Flowchart" id="11">
          <mxCell style="vsdxID=10;fillColor=none;gradientColor=none;shape=stencil(lZBLDoAgDERP0z3SI/i5h4koRAWC+Lu9kMaIJpq4m2lfJ20B80nWVgBnk3emF6tqvAQsgHOlpXDKBwVYAuatcaJzZtYNeVtHMqrRLDFhozkWJzjbyWWMfEXooHSCns0X+Cv3R+oNDeJanG5Oe88jQ4kehOUB);strokeColor=#000000;spacingTop=-2;spacingBottom=-2;spacingLeft=-2;spacingRight=-2;points=[[0.75,1,0],[0.25,1,0],[0.25,0,0],[0.75,0,0],[0.5,0,0],[0,0.5,0],[1,0.5,0],[0.5,1,0]];labelBackgroundColor=#ffffff;rounded=0;html=1;whiteSpace=wrap;" parent="1" vertex="1">
            <mxGeometry x="711" y="241" width="76" height="38" as="geometry" />
          </mxCell>
        </UserObject>
        <UserObject label="&lt;div style=&quot;font-size: 1px&quot;&gt;&lt;font style=&quot;font-size: 11.29px; font-family: Calibri; direction: ltr; letter-spacing: 0px; line-height: 120%; opacity: 1;&quot;&gt;Log In&lt;br&gt;&lt;/font&gt;&lt;/div&gt;" tags="Connector" id="16">
          <mxCell style="vsdxID=15;edgeStyle=none;startArrow=none;endArrow=block;startSize=5;endSize=5;strokeColor=#001DBC;spacingTop=0;spacingBottom=0;spacingLeft=0;spacingRight=0;verticalAlign=middle;html=1;labelBackgroundColor=#ffffff;rounded=0;align=center;exitX=1;exitY=0.5;exitDx=0;exitDy=0;exitPerimeter=0;entryX=0;entryY=0.5;entryDx=0;entryDy=0;entryPerimeter=0;fillColor=#0050ef;" parent="1" source="9" target="3" edge="1">
            <mxGeometry relative="1" as="geometry">
              <mxPoint as="offset" />
              <Array as="points">
                <mxPoint x="202.4" y="438" />
                <mxPoint x="202.4" y="368.15" />
              </Array>
            </mxGeometry>
          </mxCell>
        </UserObject>
        <mxCell id="n0rWEYXj6u7ta5OzWeaF-54" style="edgeStyle=orthogonalEdgeStyle;rounded=0;orthogonalLoop=1;jettySize=auto;html=1;exitX=0.5;exitY=1;exitDx=0;exitDy=0;exitPerimeter=0;fillColor=#647687;strokeColor=#314354;entryX=0.5;entryY=0;entryDx=0;entryDy=0;entryPerimeter=0;" parent="1" source="n0rWEYXj6u7ta5OzWeaF-52" target="8" edge="1">
          <mxGeometry relative="1" as="geometry">
            <Array as="points">
              <mxPoint x="558" y="370" />
              <mxPoint x="488" y="370" />
              <mxPoint x="488" y="585" />
            </Array>
          </mxGeometry>
        </mxCell>
        <mxCell id="n0rWEYXj6u7ta5OzWeaF-55" value="Select Event" style="edgeLabel;html=1;align=center;verticalAlign=middle;resizable=0;points=[];" parent="n0rWEYXj6u7ta5OzWeaF-54" vertex="1" connectable="0">
          <mxGeometry x="-0.3081" relative="1" as="geometry">
            <mxPoint as="offset" />
          </mxGeometry>
        </mxCell>
        <UserObject label="&lt;div style=&quot;font-size: 1px&quot;&gt;&lt;font style=&quot;font-size:11.29px;font-family:Calibri;color:#feffff;direction:ltr;letter-spacing:0px;line-height:120%;opacity:1&quot;&gt;Display Event Program&lt;br/&gt;&lt;/font&gt;&lt;/div&gt;" tags="Flowchart" id="n0rWEYXj6u7ta5OzWeaF-52">
          <mxCell style="verticalAlign=middle;align=center;overflow=width;vsdxID=5;fillColor=#4672c4;gradientColor=none;shape=stencil(rVFBDsIwDHtNj5VCK14wxj8ilm0VZZ3SAuX3tAoIBhwQ4mbHjhMlyjZxxJmUgZg47OnsujQqu1HGuGkkdqkgZVtlmz4wDRyOUyd8xuqs6BBONSFLH9QOAxdha6FbcSLvisR5oQEvvfegFXyMgqwxu6g5JEwuTIupHnkgXcbo3uNwyxEpnonmt/Ivi/1nLfhirQIeZ+6d9/KlZ/31LaUkL7XtFQ==);strokeColor=#c8c8c8;spacingTop=-2;spacingBottom=-2;spacingLeft=-2;spacingRight=-2;points=[[0,0.5,0],[0.5,1,0],[1,0.5,0],[0.5,0,0],[0.5,0.5,0]];labelBackgroundColor=none;rounded=0;html=1;whiteSpace=wrap;" parent="1" vertex="1">
            <mxGeometry x="520" y="241" width="76" height="76" as="geometry" />
          </mxCell>
        </UserObject>
        <UserObject label="&lt;div style=&quot;font-size: 1px&quot;&gt;&lt;font style=&quot;font-size:11.29px;font-family:Calibri;color:#feffff;direction:ltr;letter-spacing:0px;line-height:120%;opacity:1&quot;&gt;Reporter&lt;/font&gt;&lt;/div&gt;" tags="Flowchart" id="n0rWEYXj6u7ta5OzWeaF-72">
          <mxCell style="verticalAlign=middle;align=center;overflow=width;vsdxID=7;fillColor=#4672c4;gradientColor=none;shape=stencil(rVFBDsIwDHtNj5VCK14wxj8ilm0VZZ3SAuX3tAoIBhwQ4mbHjhMlyjZxxJmUgZg47OnsujQqu1HGuGkkdqkgZVtlmz4wDRyOUyd8xuqs6BBONSFLH9QOAxdha6FbcSLvisR5oQEvvfegFXyMgqwxu6g5JEwuTIupHnkgXcbo3uNwyxEpnonmt/Ivi/1nLfhirQIeZ+6d9/KlZ/31LaUkL7XtFQ==);strokeColor=#c8c8c8;spacingTop=-2;spacingBottom=-2;spacingLeft=-2;spacingRight=-2;points=[[0,0.5,0],[0.5,1,0],[1,0.5,0],[0.5,0,0],[0.5,0.5,0]];labelBackgroundColor=none;rounded=0;html=1;whiteSpace=wrap;" parent="1" vertex="1">
            <mxGeometry x="220" y="610" width="76" height="76" as="geometry" />
          </mxCell>
        </UserObject>
        <mxCell id="n0rWEYXj6u7ta5OzWeaF-75" style="edgeStyle=orthogonalEdgeStyle;rounded=0;orthogonalLoop=1;jettySize=auto;html=1;exitX=0.5;exitY=0;exitDx=0;exitDy=0;exitPerimeter=0;entryX=1;entryY=0.5;entryDx=0;entryDy=0;entryPerimeter=0;fillColor=#e51400;strokeColor=#B20000;" parent="1" source="3" target="n0rWEYXj6u7ta5OzWeaF-72" edge="1">
          <mxGeometry relative="1" as="geometry">
            <Array as="points">
              <mxPoint x="388" y="320" />
              <mxPoint x="440" y="320" />
              <mxPoint x="440" y="648" />
            </Array>
          </mxGeometry>
        </mxCell>
        <mxCell id="n0rWEYXj6u7ta5OzWeaF-76" value="Report Admin" style="edgeLabel;html=1;align=center;verticalAlign=middle;resizable=0;points=[];" parent="n0rWEYXj6u7ta5OzWeaF-75" vertex="1" connectable="0">
          <mxGeometry x="0.2347" y="1" relative="1" as="geometry">
            <mxPoint as="offset" />
          </mxGeometry>
        </mxCell>
        <mxCell id="n0rWEYXj6u7ta5OzWeaF-77" style="edgeStyle=orthogonalEdgeStyle;rounded=0;orthogonalLoop=1;jettySize=auto;html=1;exitX=0;exitY=0.5;exitDx=0;exitDy=0;exitPerimeter=0;entryX=0.184;entryY=1.079;entryDx=0;entryDy=0;entryPerimeter=0;fillColor=#e51400;strokeColor=#B20000;" parent="1" source="n0rWEYXj6u7ta5OzWeaF-72" target="9" edge="1">
          <mxGeometry relative="1" as="geometry" />
        </mxCell>
        <mxCell id="Ib1NT77Q6sdpfj3bOKDI-18" style="edgeStyle=orthogonalEdgeStyle;rounded=0;orthogonalLoop=1;jettySize=auto;html=1;exitX=0.5;exitY=0;exitDx=0;exitDy=0;exitPerimeter=0;entryX=0;entryY=0.5;entryDx=0;entryDy=0;entryPerimeter=0;fillColor=#0050ef;strokeColor=#001DBC;" parent="1" source="9" target="n0rWEYXj6u7ta5OzWeaF-52" edge="1">
          <mxGeometry relative="1" as="geometry" />
        </mxCell>
        <mxCell id="Ib1NT77Q6sdpfj3bOKDI-19" style="edgeStyle=orthogonalEdgeStyle;rounded=0;orthogonalLoop=1;jettySize=auto;html=1;entryX=0.855;entryY=0.158;entryDx=0;entryDy=0;entryPerimeter=0;fillColor=#e51400;strokeColor=#B20000;" parent="1" source="8" target="n0rWEYXj6u7ta5OzWeaF-72" edge="1">
          <mxGeometry relative="1" as="geometry">
            <Array as="points">
              <mxPoint x="470" y="622" />
              <mxPoint x="470" y="622" />
            </Array>
          </mxGeometry>
        </mxCell>
        <mxCell id="Ib1NT77Q6sdpfj3bOKDI-20" value="Report Admin" style="edgeLabel;html=1;align=center;verticalAlign=middle;resizable=0;points=[];" parent="Ib1NT77Q6sdpfj3bOKDI-19" vertex="1" connectable="0">
          <mxGeometry x="-0.1266" y="1" relative="1" as="geometry">
            <mxPoint as="offset" />
          </mxGeometry>
        </mxCell>
        <UserObject label="&lt;div style=&quot;font-size: 1px&quot;&gt;&lt;font style=&quot;font-size:11.29px;font-family:Calibri;color:#feffff;direction:ltr;letter-spacing:0px;line-height:120%;opacity:1&quot;&gt;Cancel Event&lt;/font&gt;&lt;/div&gt;" tags="Flowchart" id="Ib1NT77Q6sdpfj3bOKDI-22">
          <mxCell style="verticalAlign=middle;align=center;overflow=width;vsdxID=5;fillColor=#4672c4;gradientColor=none;shape=stencil(rVFBDsIwDHtNj5VCK14wxj8ilm0VZZ3SAuX3tAoIBhwQ4mbHjhMlyjZxxJmUgZg47OnsujQqu1HGuGkkdqkgZVtlmz4wDRyOUyd8xuqs6BBONSFLH9QOAxdha6FbcSLvisR5oQEvvfegFXyMgqwxu6g5JEwuTIupHnkgXcbo3uNwyxEpnonmt/Ivi/1nLfhirQIeZ+6d9/KlZ/31LaUkL7XtFQ==);strokeColor=#c8c8c8;spacingTop=-2;spacingBottom=-2;spacingLeft=-2;spacingRight=-2;points=[[0,0.5,0],[0.5,1,0],[1,0.5,0],[0.5,0,0],[0.5,0.5,0]];labelBackgroundColor=none;rounded=0;html=1;whiteSpace=wrap;" parent="1" vertex="1">
            <mxGeometry x="690" y="585" width="76" height="76" as="geometry" />
          </mxCell>
        </UserObject>
        <mxCell id="Ib1NT77Q6sdpfj3bOKDI-24" style="edgeStyle=orthogonalEdgeStyle;rounded=0;orthogonalLoop=1;jettySize=auto;html=1;entryX=0;entryY=0.5;entryDx=0;entryDy=0;entryPerimeter=0;exitX=0.25;exitY=0.079;exitDx=0;exitDy=0;exitPerimeter=0;" parent="1" source="Ib1NT77Q6sdpfj3bOKDI-22" target="11" edge="1">
          <mxGeometry relative="1" as="geometry">
            <Array as="points">
              <mxPoint x="670" y="591" />
              <mxPoint x="670" y="260" />
            </Array>
          </mxGeometry>
        </mxCell>
        <mxCell id="Ib1NT77Q6sdpfj3bOKDI-25" value="Cancel Event" style="edgeLabel;html=1;align=center;verticalAlign=middle;resizable=0;points=[];" parent="Ib1NT77Q6sdpfj3bOKDI-24" vertex="1" connectable="0">
          <mxGeometry x="0.0895" y="-1" relative="1" as="geometry">
            <mxPoint as="offset" />
          </mxGeometry>
        </mxCell>
        <UserObject label="&lt;div style=&quot;font-size: 1px&quot;&gt;&lt;font style=&quot;font-size:11.29px;font-family:Calibri;color:#feffff;direction:ltr;letter-spacing:0px;line-height:120%;opacity:1&quot;&gt;Send Event Wide Email&lt;/font&gt;&lt;/div&gt;" tags="Flowchart" id="Ib1NT77Q6sdpfj3bOKDI-35">
          <mxCell style="verticalAlign=middle;align=center;overflow=width;vsdxID=5;fillColor=#4672c4;gradientColor=none;shape=stencil(rVFBDsIwDHtNj5VCK14wxj8ilm0VZZ3SAuX3tAoIBhwQ4mbHjhMlyjZxxJmUgZg47OnsujQqu1HGuGkkdqkgZVtlmz4wDRyOUyd8xuqs6BBONSFLH9QOAxdha6FbcSLvisR5oQEvvfegFXyMgqwxu6g5JEwuTIupHnkgXcbo3uNwyxEpnonmt/Ivi/1nLfhirQIeZ+6d9/KlZ/31LaUkL7XtFQ==);strokeColor=#c8c8c8;spacingTop=-2;spacingBottom=-2;spacingLeft=-2;spacingRight=-2;points=[[0,0.5,0],[0.5,1,0],[1,0.5,0],[0.5,0,0],[0.5,0.5,0]];labelBackgroundColor=none;rounded=0;html=1;whiteSpace=wrap;" parent="1" vertex="1">
            <mxGeometry x="560" y="440" width="76" height="76" as="geometry" />
          </mxCell>
        </UserObject>
        <mxCell id="Ib1NT77Q6sdpfj3bOKDI-36" style="edgeStyle=orthogonalEdgeStyle;rounded=0;orthogonalLoop=1;jettySize=auto;html=1;exitX=0;exitY=0.5;exitDx=0;exitDy=0;exitPerimeter=0;entryX=1;entryY=0.605;entryDx=0;entryDy=0;entryPerimeter=0;fillColor=#e51400;strokeColor=#B20000;" parent="1" source="Ib1NT77Q6sdpfj3bOKDI-35" target="n0rWEYXj6u7ta5OzWeaF-72" edge="1">
          <mxGeometry relative="1" as="geometry">
            <Array as="points">
              <mxPoint x="480" y="478" />
              <mxPoint x="480" y="700" />
              <mxPoint x="296" y="700" />
            </Array>
          </mxGeometry>
        </mxCell>
        <mxCell id="Ib1NT77Q6sdpfj3bOKDI-37" value="Report Admin" style="edgeLabel;html=1;align=center;verticalAlign=middle;resizable=0;points=[];" parent="Ib1NT77Q6sdpfj3bOKDI-36" vertex="1" connectable="0">
          <mxGeometry x="0.0188" y="-1" relative="1" as="geometry">
            <mxPoint as="offset" />
          </mxGeometry>
        </mxCell>
        <mxCell id="Ib1NT77Q6sdpfj3bOKDI-39" style="edgeStyle=orthogonalEdgeStyle;rounded=0;orthogonalLoop=1;jettySize=auto;html=1;entryX=0.105;entryY=0.789;entryDx=0;entryDy=0;entryPerimeter=0;fillColor=#0050ef;strokeColor=#001DBC;" parent="1" source="8" target="Ib1NT77Q6sdpfj3bOKDI-35" edge="1">
          <mxGeometry relative="1" as="geometry" />
        </mxCell>
        <mxCell id="Ib1NT77Q6sdpfj3bOKDI-40" value="Send Email" style="edgeLabel;html=1;align=center;verticalAlign=middle;resizable=0;points=[];" parent="Ib1NT77Q6sdpfj3bOKDI-39" vertex="1" connectable="0">
          <mxGeometry x="0.1289" y="-3" relative="1" as="geometry">
            <mxPoint as="offset" />
          </mxGeometry>
        </mxCell>
        <mxCell id="Ib1NT77Q6sdpfj3bOKDI-41" style="edgeStyle=orthogonalEdgeStyle;rounded=0;orthogonalLoop=1;jettySize=auto;html=1;entryX=0.921;entryY=0.658;entryDx=0;entryDy=0;entryPerimeter=0;exitX=0.5;exitY=0;exitDx=0;exitDy=0;exitPerimeter=0;" parent="1" source="Ib1NT77Q6sdpfj3bOKDI-22" target="Ib1NT77Q6sdpfj3bOKDI-35" edge="1">
          <mxGeometry relative="1" as="geometry">
            <Array as="points">
              <mxPoint x="728" y="600" />
              <mxPoint x="630" y="600" />
            </Array>
          </mxGeometry>
        </mxCell>
        <UserObject label="&lt;div style=&quot;font-size: 1px&quot;&gt;&lt;font style=&quot;font-size:11.29px;font-family:Calibri;color:#feffff;direction:ltr;letter-spacing:0px;line-height:120%;opacity:1&quot;&gt;Add Event&lt;/font&gt;&lt;/div&gt;" tags="Flowchart" id="Ib1NT77Q6sdpfj3bOKDI-43">
          <mxCell style="verticalAlign=middle;align=center;overflow=width;vsdxID=5;fillColor=#4672c4;gradientColor=none;shape=stencil(rVFBDsIwDHtNj5VCK14wxj8ilm0VZZ3SAuX3tAoIBhwQ4mbHjhMlyjZxxJmUgZg47OnsujQqu1HGuGkkdqkgZVtlmz4wDRyOUyd8xuqs6BBONSFLH9QOAxdha6FbcSLvisR5oQEvvfegFXyMgqwxu6g5JEwuTIupHnkgXcbo3uNwyxEpnonmt/Ivi/1nLfhirQIeZ+6d9/KlZ/31LaUkL7XtFQ==);strokeColor=#c8c8c8;spacingTop=-2;spacingBottom=-2;spacingLeft=-2;spacingRight=-2;points=[[0,0.5,0],[0.5,1,0],[1,0.5,0],[0.5,0,0],[0.5,0.5,0]];labelBackgroundColor=none;rounded=0;html=1;whiteSpace=wrap;" parent="1" vertex="1">
            <mxGeometry x="520" y="120" width="76" height="76" as="geometry" />
          </mxCell>
        </UserObject>
        <mxCell id="Ib1NT77Q6sdpfj3bOKDI-45" style="edgeStyle=orthogonalEdgeStyle;rounded=0;orthogonalLoop=1;jettySize=auto;html=1;exitX=0.5;exitY=0;exitDx=0;exitDy=0;exitPerimeter=0;entryX=0.5;entryY=1;entryDx=0;entryDy=0;entryPerimeter=0;fillColor=#0050ef;strokeColor=#001DBC;" parent="1" source="n0rWEYXj6u7ta5OzWeaF-52" target="Ib1NT77Q6sdpfj3bOKDI-43" edge="1">
          <mxGeometry relative="1" as="geometry" />
        </mxCell>
        <mxCell id="Ib1NT77Q6sdpfj3bOKDI-46" value="Add" style="edgeLabel;html=1;align=center;verticalAlign=middle;resizable=0;points=[];" parent="Ib1NT77Q6sdpfj3bOKDI-45" vertex="1" connectable="0">
          <mxGeometry x="-0.1111" relative="1" as="geometry">
            <mxPoint as="offset" />
          </mxGeometry>
        </mxCell>
        <mxCell id="Ib1NT77Q6sdpfj3bOKDI-47" style="edgeStyle=orthogonalEdgeStyle;rounded=0;orthogonalLoop=1;jettySize=auto;html=1;exitX=1;exitY=0.5;exitDx=0;exitDy=0;exitPerimeter=0;entryX=0.5;entryY=0;entryDx=0;entryDy=0;entryPerimeter=0;" parent="1" source="Ib1NT77Q6sdpfj3bOKDI-43" target="11" edge="1">
          <mxGeometry relative="1" as="geometry" />
        </mxCell>
        <UserObject label="&lt;div style=&quot;font-size: 1px&quot;&gt;&lt;font style=&quot;font-size:11.29px;font-family:Calibri;color:#feffff;direction:ltr;letter-spacing:0px;line-height:120%;opacity:1&quot;&gt;Add Loyalty Card&lt;br&gt;&lt;/font&gt;&lt;/div&gt;" tags="Flowchart" id="ZhXyF9eMGuVJLoWDeh71-16">
          <mxCell style="verticalAlign=middle;align=center;overflow=width;vsdxID=2;fillColor=#4672c4;gradientColor=none;shape=stencil(rVFBDsIwDHtNj5VCK14wxj8ilm0VZZ3SAuX3tAoIBhwQ4mbHjhMlyjZxxJmUgZg47OnsujQqu1HGuGkkdqkgZVtlmz4wDRyOUyd8xuqs6BBONSFLH9QOAxdha6FbcSLvisR5oQEvvfegFXyMgqwxu6g5JEwuTIupHnkgXcbo3uNwyxEpnonmt/Ivi/1nLfhirQIeZ+6d9/KlZ/31LaUkL7XtFQ==);strokeColor=#c8c8c8;spacingTop=-2;spacingBottom=-2;spacingLeft=-2;spacingRight=-2;points=[[0,0.5,0],[0.5,1,0],[1,0.5,0],[0.5,0,0],[0.5,0.5,0]];labelBackgroundColor=none;rounded=0;html=1;whiteSpace=wrap;" vertex="1" parent="1">
            <mxGeometry x="270" y="450" width="76" height="76" as="geometry" />
          </mxCell>
        </UserObject>
        <mxCell id="ZhXyF9eMGuVJLoWDeh71-17" style="edgeStyle=orthogonalEdgeStyle;rounded=0;orthogonalLoop=1;jettySize=auto;html=1;exitX=0.5;exitY=1;exitDx=0;exitDy=0;exitPerimeter=0;entryX=0;entryY=0.5;entryDx=0;entryDy=0;entryPerimeter=0;fillColor=#0050ef;strokeColor=#001DBC;" edge="1" parent="1" source="9" target="ZhXyF9eMGuVJLoWDeh71-16">
          <mxGeometry relative="1" as="geometry" />
        </mxCell>
        <mxCell id="ZhXyF9eMGuVJLoWDeh71-18" value="Add" style="edgeLabel;html=1;align=center;verticalAlign=middle;resizable=0;points=[];" vertex="1" connectable="0" parent="ZhXyF9eMGuVJLoWDeh71-17">
          <mxGeometry x="0.1975" y="-4" relative="1" as="geometry">
            <mxPoint as="offset" />
          </mxGeometry>
        </mxCell>
        <mxCell id="ZhXyF9eMGuVJLoWDeh71-19" style="edgeStyle=orthogonalEdgeStyle;rounded=0;orthogonalLoop=1;jettySize=auto;html=1;exitX=1;exitY=0.5;exitDx=0;exitDy=0;exitPerimeter=0;entryX=0.25;entryY=1;entryDx=0;entryDy=0;entryPerimeter=0;" edge="1" parent="1" source="ZhXyF9eMGuVJLoWDeh71-16" target="11">
          <mxGeometry relative="1" as="geometry">
            <Array as="points">
              <mxPoint x="346" y="430" />
              <mxPoint x="730" y="430" />
            </Array>
          </mxGeometry>
        </mxCell>
        <mxCell id="ZhXyF9eMGuVJLoWDeh71-20" value="Add Card" style="edgeLabel;html=1;align=center;verticalAlign=middle;resizable=0;points=[];" vertex="1" connectable="0" parent="ZhXyF9eMGuVJLoWDeh71-19">
          <mxGeometry x="-0.1366" y="1" relative="1" as="geometry">
            <mxPoint as="offset" />
          </mxGeometry>
        </mxCell>
      </root>
    </mxGraphModel>
  </diagram>
</mxfile>
